<svg xmlns="http://www.w3.org/2000/svg" xmlns:xlink="http://www.w3.org/1999/xlink" width="500" zoomAndPan="magnify" viewBox="0 0 375 374.999991" height="500" preserveAspectRatio="xMidYMid meet" version="1.0"><defs><clipPath id="759435c17b"><path d="M 108.660156 83.839844 L 217 83.839844 L 217 290.839844 L 108.660156 290.839844 Z M 108.660156 83.839844 " clip-rule="nonzero"/></clipPath><clipPath id="94674b59c9"><path d="M 185 186 L 257.910156 186 L 257.910156 285 L 185 285 Z M 185 186 " clip-rule="nonzero"/></clipPath></defs><g clip-path="url(#759435c17b)"><path fill="#000000" d="M 205.535156 83.777344 L 205.183594 88.273438 C 204.640625 95.8125 203.996094 102.5 203.253906 108.34375 L 202.539062 109.164062 L 201.082031 114.40625 C 200.886719 121.476562 200.339844 126.535156 199.441406 129.582031 C 199.386719 128.777344 199.089844 129.121094 198.546875 130.617188 C 195.523438 146.359375 193.378906 155.800781 192.113281 158.933594 C 192.585938 158.683594 189.652344 166.109375 183.3125 181.21875 C 178.941406 190.066406 174.453125 198.046875 169.851562 205.160156 L 148.609375 234.671875 L 139.03125 246.890625 L 126.019531 259.234375 L 115.425781 273.210938 C 113.324219 274.726562 111.117188 276.859375 108.804688 279.613281 L 109.632812 282.636719 C 109.140625 285.722656 109.066406 287.132812 109.40625 286.871094 L 111.273438 289.386719 L 114.175781 290.171875 L 119.714844 290.835938 C 121.957031 288.699219 124.394531 287.667969 127.03125 287.738281 L 131.085938 284.574219 L 132.390625 283.050781 L 128.109375 285.410156 C 142.597656 273.613281 157.371094 257.945312 172.429688 238.414062 C 177.136719 232.441406 181.171875 226.957031 184.535156 221.964844 C 193.148438 207.71875 197.9375 199.152344 198.90625 196.265625 C 201.605469 190.675781 204.496094 183.777344 207.578125 175.566406 C 207.496094 175.160156 205.816406 179.171875 202.546875 187.601562 C 201.171875 190.515625 199.78125 193.058594 198.375 195.238281 L 205.003906 178.675781 L 210.664062 157.5625 C 211.371094 154.542969 212.039062 151.03125 212.675781 147.027344 L 213.09375 142.757812 L 212.242188 140.519531 C 214.421875 126.308594 215.398438 117.972656 215.175781 115.503906 L 215.296875 110.503906 L 214.277344 112.257812 L 216.203125 91.863281 L 213.988281 106.433594 L 213.066406 110.105469 L 211.6875 111.804688 C 212.109375 108.355469 212.472656 104.851562 212.777344 101.289062 L 212.742188 98.992188 L 210.605469 111.707031 L 209.710938 116.15625 L 208.90625 117.070312 L 206.824219 128.414062 C 206.808594 126.695312 207.230469 123.242188 208.089844 118.058594 L 207.457031 118.515625 C 209.382812 105.183594 210.570312 96.320312 211.019531 91.921875 C 208.800781 106.960938 207.664062 114.128906 207.609375 113.417969 L 207.304688 114.160156 L 208.792969 103.726562 L 207.269531 108.84375 L 207.269531 107.214844 L 204.742188 123.375 L 203.753906 126.917969 C 205.203125 116.359375 205.503906 112.15625 204.65625 114.308594 L 207.988281 92.007812 L 208.089844 89.167969 L 207.199219 94.300781 C 206.847656 95.289062 206.292969 95.078125 205.527344 93.660156 L 204.808594 97.3125 L 205.613281 86.597656 L 205.535156 83.777344 " fill-opacity="1" fill-rule="nonzero"/></g><g clip-path="url(#94674b59c9)"><path fill="#000000" d="M 196.777344 186.996094 L 191.746094 188.25 L 188.328125 192.0625 C 187.558594 193.898438 186.671875 196.34375 185.667969 199.40625 L 187.023438 197.136719 C 187.132812 199.554688 187.476562 204.554688 188.054688 212.140625 L 191.089844 237.917969 L 191.910156 242.90625 L 194.878906 253.089844 C 196.015625 256.316406 197.695312 259.808594 199.914062 263.554688 L 204.738281 270.191406 L 204.253906 268.789062 L 200.449219 263.882812 L 198.535156 259.277344 L 202.832031 265.617188 L 205.746094 269.191406 C 207.910156 271.066406 210.921875 273.390625 214.769531 276.15625 L 219.824219 279.042969 C 227.703125 280.734375 232.898438 282.027344 235.410156 282.925781 L 239.667969 283.480469 L 241.980469 282.847656 C 244.820312 283.128906 248.101562 283.542969 251.816406 284.089844 L 252.707031 283.964844 L 245.625 282.371094 L 243.261719 280.257812 L 248.488281 281.09375 L 248.746094 280.65625 L 241.722656 278.597656 C 241.140625 277.71875 238.984375 276.644531 235.253906 275.375 L 254.199219 279.175781 C 252.96875 279 249.597656 278.152344 244.082031 276.632812 L 244.183594 276.363281 L 248.03125 277.09375 L 246.257812 275.785156 C 242.1875 274.816406 238.929688 273.769531 236.488281 272.648438 L 242.011719 273.820312 L 243.023438 273.511719 C 243.832031 273.558594 246.703125 274.238281 251.640625 275.550781 L 255.847656 276.085938 C 254.117188 275.398438 252.855469 274.4375 252.0625 273.199219 L 256.875 273.574219 L 257.644531 273.34375 C 253.4375 273.019531 250.300781 272.652344 248.238281 272.238281 L 245.1875 270.800781 C 241.636719 270.027344 238.6875 269.257812 236.339844 268.5 L 236.398438 267.84375 C 229.625 264.851562 225.777344 262.882812 224.847656 261.945312 L 221.445312 258.652344 C 219.800781 256.6875 218.195312 254.390625 216.628906 251.769531 C 215.976562 249.777344 215.078125 247.246094 213.933594 244.183594 L 212.902344 239.792969 C 212.359375 237.066406 212.078125 234.355469 212.054688 231.664062 C 210.796875 225.164062 209.683594 218.8125 208.722656 212.605469 C 208.605469 207.121094 208.398438 203.304688 208.101562 201.152344 L 205.6875 197.417969 C 204.464844 195.019531 203.382812 192.066406 202.449219 188.546875 L 196.777344 186.996094 " fill-opacity="1" fill-rule="nonzero"/></g></svg>