<svg xmlns="http://www.w3.org/2000/svg" xmlns:xlink="http://www.w3.org/1999/xlink" width="500" zoomAndPan="magnify" viewBox="0 0 375 374.999991" height="500" preserveAspectRatio="xMidYMid meet" version="1.0"><path fill="#000000" d="M 204.667969 298.546875 C 204.753906 298.597656 204.839844 298.640625 204.921875 298.691406 C 206.183594 297.199219 205.917969 297.6875 205.675781 296.859375 C 204.796875 297.242188 205.007812 296.742188 204.667969 298.546875 Z M 191.222656 308.792969 C 190.90625 308.28125 190.671875 307.902344 190.429688 307.507812 C 189.390625 308.304688 189.390625 308.304688 189.917969 309.777344 C 190.3125 309.480469 190.683594 309.203125 191.222656 308.792969 Z M 212.59375 309.839844 C 211.449219 307.617188 212.363281 307.234375 210.507812 306.175781 C 210.953125 305.78125 211.3125 305.464844 211.863281 304.988281 C 206.914062 303.121094 213.878906 299.320312 206.949219 296.480469 C 204.921875 299.210938 209.34375 302.042969 204.394531 302.75 C 204.394531 301.121094 204.691406 300.570312 203.90625 299.902344 C 203.589844 299.636719 203.628906 298.640625 203.628906 298.640625 C 202.433594 298.003906 203.070312 296.554688 202.265625 295.589844 C 199.996094 298.078125 202.179688 296.914062 202.210938 304.363281 C 202.210938 304.363281 202.570312 320.382812 202.570312 320.382812 C 202.453125 320.40625 202.347656 320.425781 202.242188 320.457031 C 201.882812 319.863281 200.132812 308.21875 200.050781 307.53125 C 199.921875 307.5 199.792969 307.476562 199.667969 307.445312 C 199.296875 307.984375 198.925781 308.539062 198.535156 309.109375 C 196.617188 308.71875 197.378906 299.253906 195.535156 295.078125 C 194.296875 296.710938 196.765625 297.75 194.929688 298.832031 C 193.554688 299.65625 194.972656 299.351562 196.402344 307.402344 C 197.039062 310.972656 196.765625 311.558594 195.777344 313.378906 C 195.25 314.34375 194 313.316406 194.179688 315.53125 C 194.667969 321.476562 194.148438 321.105469 193.523438 323.128906 C 193.394531 323.128906 193.269531 323.128906 193.140625 323.128906 C 190.980469 309.363281 189.019531 305.261719 190.839844 319.589844 C 190.882812 319.90625 190.765625 320.234375 190.417969 320.585938 C 186.335938 309.269531 188.4375 294.65625 185.363281 298.949219 C 185.363281 298.949219 185.839844 300.621094 184.324219 302.816406 C 183.414062 304.140625 183.339844 305.847656 184.1875 307.488281 C 184.417969 305.359375 184.269531 305.972656 184.90625 305.367188 C 186.476562 307.128906 183.253906 308.367188 184.726562 312.003906 C 182.585938 310.667969 184.367188 309.460938 182.417969 308.792969 C 182.722656 307.996094 183.242188 307.222656 182.320312 306.480469 C 181.324219 307.128906 181.273438 308.367188 180.742188 309.460938 C 180.320312 309.164062 180.011719 308.941406 179.597656 308.664062 C 179.300781 311.101562 180.222656 313.421875 179.628906 316.113281 C 179.109375 315.433594 178.792969 315.023438 178.390625 314.503906 C 177.617188 316.273438 178.773438 317.183594 179.808594 318.167969 C 176.164062 318.464844 178.007812 312.171875 175.402344 304.425781 C 174.945312 304.628906 174.574219 304.796875 174.023438 305.039062 C 173.527344 303.671875 173.058594 302.390625 172.582031 301.109375 C 172.507812 301.109375 172.425781 301.121094 172.351562 301.121094 C 172.265625 302.042969 172.191406 302.964844 172.105469 303.875 C 172 303.894531 171.90625 303.90625 171.800781 303.929688 C 169.183594 293.277344 170.074219 292.824219 168.3125 292.527344 C 168.007812 292.792969 167.644531 293.085938 167.148438 293.511719 C 157.21875 280.265625 159.273438 132.554688 180.796875 157.0625 C 183.105469 156.140625 184.113281 153.746094 187.101562 153.300781 C 189.433594 152.953125 190.722656 153.472656 191.210938 152.125 C 191.835938 150.410156 193.710938 152.03125 196.308594 149.730469 C 201.425781 145.214844 201.703125 158.21875 205.472656 155.601562 C 208.292969 153.652344 208.515625 157.804688 207.933594 148.703125 C 212.933594 151.234375 215.382812 302.972656 212.59375 309.839844 " fill-opacity="1" fill-rule="nonzero"/><path fill="#000000" d="M 174.3125 61.007812 C 174.3125 60.320312 174.3125 59.578125 174.3125 58.847656 C 178.867188 60.804688 177.679688 62.714844 179.703125 57.308594 C 180.796875 57.5 180.582031 58.730469 181.539062 59.078125 C 182.9375 58.167969 183.308594 58.453125 183.667969 57.183594 C 184.429688 54.425781 185.265625 58.136719 186.65625 58.632812 C 186.644531 57.648438 187.546875 56.789062 186.328125 55.921875 C 186.886719 55.496094 187.355469 55.160156 188 54.671875 C 188.699219 56.164062 189.347656 57.542969 190.078125 59.089844 C 191.0625 58.074219 192.546875 58.253906 193.140625 56.695312 C 194.359375 58.113281 193.839844 57.480469 195.015625 59.003906 C 195.960938 56.632812 196.363281 54.351562 198.121094 52.53125 C 198.882812 54.460938 199.613281 56.304688 200.484375 58.476562 C 202.304688 54.195312 199.582031 54.976562 205.910156 54.140625 C 206.300781 53.527344 206.777344 52.785156 207.359375 51.863281 C 207.710938 52.457031 207.921875 52.804688 207.945312 52.835938 C 209.078125 53.273438 209.914062 53.601562 210.730469 53.917969 C 212.808594 64.527344 211.769531 81.636719 216.070312 92.839844 C 216.292969 93.410156 217.585938 97.300781 214.652344 97.046875 C 214.652344 98.167969 214.652344 99.292969 214.652344 100.796875 C 213.082031 98.5625 211.566406 96.738281 211.046875 94.289062 C 209.679688 96.578125 211.175781 102.660156 209.5 103.574219 C 208.175781 104.304688 209.171875 105.542969 208.355469 107.503906 C 208.113281 106.835938 207.871094 106.167969 207.550781 105.320312 C 203.238281 105.703125 205.527344 106.390625 203.164062 104.398438 C 203.101562 105.714844 203.046875 106.792969 202.996094 108.054688 C 201.976562 107.335938 202.445312 106.199219 201.703125 105.246094 C 201.53125 106.53125 201.566406 107.039062 201.121094 107.546875 C 200.917969 106.488281 200.707031 105.425781 200.496094 104.316406 C 199.277344 104.546875 199.167969 105.277344 199.285156 106.160156 C 199.710938 109.1875 198.226562 107.484375 198.269531 109.75 C 198.375 114.730469 198.628906 112.875 198.132812 114.457031 C 194.792969 103.796875 196.191406 114.191406 192.769531 102.472656 C 192.640625 102.460938 192.515625 102.4375 192.386719 102.429688 C 191.6875 103.828125 192.070312 101.761719 192.460938 108.53125 C 189.800781 109.730469 189.886719 104.1875 189.652344 102.714844 C 187.949219 103.402344 190.429688 107.609375 187.863281 106.910156 C 187.863281 101.558594 186.050781 101.304688 185.796875 102.363281 C 185.449219 103.859375 184.230469 104.144531 183.085938 104.652344 C 183.085938 110.269531 181.304688 108.265625 181.113281 107.695312 C 180.160156 104.917969 180.394531 105.609375 179.578125 103.828125 C 178.761719 105.226562 178.105469 106.347656 177.414062 107.527344 C 176.058594 106.710938 176.132812 105.257812 175.339844 104.230469 C 174.023438 105.078125 176.089844 106.910156 173.867188 108.171875 C 172.933594 105.351562 173.886719 105.777344 173.316406 102.28125 C 173.199219 102.269531 173.09375 102.269531 172.976562 102.257812 C 172.699219 102.914062 172.414062 103.5625 172.136719 104.207031 C 172.03125 104.21875 171.9375 104.21875 171.832031 104.21875 C 171.660156 103.394531 171.449219 102.578125 171.324219 101.738281 C 170.804688 98.167969 169.042969 99.9375 168.589844 97.722656 C 168.472656 97.152344 164.203125 65.066406 165.78125 64.355469 C 170.21875 66.625 169.234375 63.160156 169.808594 58.972656 C 173.09375 61.929688 170.589844 59.660156 173.917969 61.15625 C 173.980469 61.1875 174.109375 61.09375 174.3125 61.007812 " fill-opacity="1" fill-rule="nonzero"/></svg>